<svg xmlns="http://www.w3.org/2000/svg" viewBox="0 0 32 32" width="32" height="32">
  <defs>
    <!-- Gradient definitions using APx2Digital brand colors -->
    <linearGradient id="primaryGrad" x1="0%" y1="0%" x2="100%" y2="100%">
      <stop offset="0%" style="stop-color:#6c0f26;stop-opacity:1" />
      <stop offset="100%" style="stop-color:#2a2b2a;stop-opacity:1" />
    </linearGradient>
    
    <linearGradient id="accentGrad" x1="0%" y1="0%" x2="100%" y2="100%">
      <stop offset="0%" style="stop-color:#f8f4e3;stop-opacity:1" />
      <stop offset="50%" style="stop-color:#ffe0d6;stop-opacity:1" />
      <stop offset="100%" style="stop-color:#706c61;stop-opacity:1" />
    </linearGradient>
    
    <!-- Digital circuit pattern -->
    <pattern id="circuitPattern" x="0" y="0" width="8" height="8" patternUnits="userSpaceOnUse">
      <rect width="8" height="8" fill="none"/>
      <circle cx="4" cy="4" r="0.5" fill="#6c0f26" opacity="0.3"/>
      <line x1="0" y1="4" x2="8" y2="4" stroke="#6c0f26" stroke-width="0.3" opacity="0.2"/>
      <line x1="4" y1="0" x2="4" y2="8" stroke="#6c0f26" stroke-width="0.3" opacity="0.2"/>
    </pattern>
  </defs>
  
  <!-- Background circle with subtle pattern -->
  <circle cx="16" cy="16" r="15" fill="url(#accentGrad)" stroke="#2a2b2a" stroke-width="2"/>
  <circle cx="16" cy="16" r="13" fill="url(#circuitPattern)" opacity="0.1"/>
  
  <!-- Main geometric design - abstract "A" and "X" fusion -->
  <!-- Central diamond representing digital transformation -->
  <polygon points="16,6 24,14 16,22 8,14" fill="url(#primaryGrad)" stroke="#f8f4e3" stroke-width="1"/>
  
  <!-- Inner geometric elements -->
  <!-- Top triangle (A peak) -->
  <polygon points="16,8 20,14 12,14" fill="#f8f4e3" opacity="0.9"/>
  
  <!-- Bottom inverted triangle -->
  <polygon points="16,20 12,16 20,16" fill="#ffe0d6" opacity="0.8"/>
  
  <!-- Central cross/X element -->
  <rect x="14" y="14" width="4" height="4" fill="#6c0f26" transform="rotate(45 16 16)"/>
  
  <!-- Digital accent dots -->
  <circle cx="10" cy="10" r="1" fill="#6c0f26"/>
  <circle cx="22" cy="10" r="1" fill="#6c0f26"/>
  <circle cx="10" cy="22" r="1" fill="#6c0f26"/>
  <circle cx="22" cy="22" r="1" fill="#6c0f26"/>
  
  <!-- Subtle outer ring accents -->
  <circle cx="16" cy="4" r="1.5" fill="#2a2b2a" opacity="0.6"/>
  <circle cx="28" cy="16" r="1.5" fill="#2a2b2a" opacity="0.6"/>
  <circle cx="16" cy="28" r="1.5" fill="#2a2b2a" opacity="0.6"/>
  <circle cx="4" cy="16" r="1.5" fill="#2a2b2a" opacity="0.6"/>
</svg>
