<svg width="506" height="80" version="1.1" viewBox="0 0 66.94 10.583" xmlns="http://www.w3.org/2000/svg" xmlns:xlink="http://www.w3.org/1999/xlink">
 <g transform="matrix(.26458 0 0 .26458 16.421 4.6406)" fill="#800000" style="white-space:pre" aria-label="APx2 Digital">
  <path d="m-44.348 13.984h-4.5312l-0.91797-5.8008h-5.7226l-0.91797 5.8008h-4.5117v-0.0781l5.918-30.527h4.8047zm-6.0938-9.7266-2.2266-13.789-2.2461 13.789z"/>
  <path d="m-19.023 0.05828q0 2.8516-2.793 2.8516h-7.4023v11.074h-4.5703v-30.566h11.973q2.793 0 2.793 2.8125zm-4.6094-1.0742v-11.641h-5.5859v11.641z"/>
  <path d="m5.1876 13.984h-4.8438l-2.3633-6.1914-2.4414 6.1914h-4.7656v-0.0781l4.7656-10.078-4.3164-9.5703h4.6094l2.1484 5.7227 2.2461-5.7227h4.5117v0.0781l-4.3164 9.4531z"/>
  <path d="m29.77-7.8909q0 1.4453-0.99609 3.2031l-8.3984 14.668h9.3555v4.0039h-14.824v-2.832l10.352-18.203v-5.6445h-5.5664v5.6836h-4.4726v-6.7969q0-2.7734 2.793-2.7734h8.9648q2.793 0 2.793 2.7734z"/>
  <path d="m72.527 8.2223q0 2.6953-1.6016 4.2383-1.6016 1.5234-4.3164 1.5234h-9.3164v-30.566h9.3164q2.7148 0 4.3164 1.5625 1.6016 1.543 1.6016 4.2383zm-4.5898-0.76172v-17.559q0-2.5586-2.6758-2.5586h-3.3984v22.715h3.2812q2.793 0 2.793-2.5977z"/>
  <path d="m88.379-8.5745h-4.4726v-4.6094h4.4726zm-0.0391 22.559h-4.3945v-19.727h4.3945z"/>
  <path d="m112.75 18.75q0 2.4414-2.5195 2.4414h-7.7734q-2.5195 0-2.5195-2.4414v-3.1641h4.3164v2.3633h4.043v-4.082h-4.5898q-1.875 0-2.9883-1.0547-1.0938-1.0547-1.0938-2.9102v-12.07q0-1.6992 0.95703-2.6758t2.6367-0.97656q0.83985 0 5.0781 0.80078v-0.72266h4.4531zm-4.4531-8.4766v-12.129q-2.2461-0.23437-2.793-0.23437-1.4453 0-1.4453 1.4258v9.4531q0 1.4844 1.4844 1.4844z"/>
  <path d="m128.54-8.5745h-4.4727v-4.6094h4.4727zm-0.0391 22.559h-4.3945v-19.727h4.3945z"/>
  <path d="m148.34 13.984h-4.9609q-2.4805 0-2.4805-2.4414v-13.477h-2.1094v-3.8086h2.1094v-5.3516h4.4531v5.3516h2.8711v3.8086h-2.8711v12.109h2.9883z"/>
  <path d="m171.53 13.984h-4.2774v-0.6836q-1.5234 0.23438-3.0469 0.46875-1.9922 0.29297-3.0273 0.29297-2.4414 0-2.4414-2.4023v-7.1094q0-2.4414 2.5195-2.4414h6.0352v-4.5312h-4.2774v2.8125h-4.043v-3.6914q0-2.4414 2.5195-2.4414h7.5586q2.4805 0 2.4805 2.4414zm-4.2383-3.5547v-5.293h-4.2774v5.4492z"/>
  <path d="m187.25 13.984h-4.3945v-30.566h4.3945z"/>
 </g>
</svg>
