<?xml version="1.0" encoding="UTF-8" standalone="no"?>
<!-- Created with Inkscape (http://www.inkscape.org/) -->

<svg
   width="210mm"
   height="297mm"
   viewBox="0 0 210 297"
   version="1.1"
   id="svg5"
   inkscape:version="1.1.1 (3bf5ae0d25, 2021-09-20)"
   sodipodi:docname="apx2-log-notoptimised.svg"
   xmlns:inkscape="http://www.inkscape.org/namespaces/inkscape"
   xmlns:sodipodi="http://sodipodi.sourceforge.net/DTD/sodipodi-0.dtd"
   xmlns="http://www.w3.org/2000/svg"
   xmlns:svg="http://www.w3.org/2000/svg">
  <sodipodi:namedview
     id="namedview7"
     pagecolor="#ffffff"
     bordercolor="#666666"
     borderopacity="1.0"
     inkscape:pageshadow="2"
     inkscape:pageopacity="0.0"
     inkscape:pagecheckerboard="0"
     inkscape:document-units="mm"
     showgrid="true"
     inkscape:zoom="2.9647587"
     inkscape:cx="378.95158"
     inkscape:cy="528.71082"
     inkscape:window-width="1920"
     inkscape:window-height="1017"
     inkscape:window-x="3832"
     inkscape:window-y="-8"
     inkscape:window-maximized="1"
     inkscape:current-layer="text3618">
    <inkscape:grid
       type="xygrid"
       id="grid16049" />
  </sodipodi:namedview>
  <defs
     id="defs2">
    <rect
       x="82.300121"
       y="488.404"
       width="449.27771"
       height="67.459112"
       id="rect3620" />
  </defs>
  <g
     inkscape:label="Layer 1"
     inkscape:groupmode="layer"
     id="layer1">
    <g
       aria-label="APx2 Digital"
       transform="matrix(0.26458333,0,0,0.26458333,16.420673,4.640625)"
       id="text3618"
       style="font-weight:bold;font-stretch:condensed;font-size:40px;line-height:1.25;font-family:'Agency FB';-inkscape-font-specification:'Agency FB, Bold Condensed';text-align:center;letter-spacing:8px;word-spacing:0px;text-anchor:middle;white-space:pre;shape-inside:url(#rect3620);fill:#800000">
      <path
         d="m 198.94531,525.77245 h -4.53125 l -0.91797,-5.80079 h -5.72265 l -0.91797,5.80079 h -4.51172 v -0.0781 l 5.91797,-30.52734 h 4.80469 z m -6.09375,-9.72657 -2.22656,-13.78906 -2.24609,13.78906 z"
         id="path42058" />
      <path
         d="m 224.26953,511.84666 q 0,2.85157 -2.79297,2.85157 h -7.40234 v 11.07422 h -4.57031 v -30.56641 h 11.97265 q 2.79297,0 2.79297,2.8125 z m -4.60937,-1.07421 v -11.64063 h -5.58594 v 11.64063 z"
         id="path42055" />
      <path
         d="m 248.48047,525.77245 h -4.84375 l -2.36328,-6.19141 -2.44141,6.19141 h -4.76562 v -0.0781 l 4.76562,-10.07812 -4.31641,-9.57032 h 4.60938 l 2.14844,5.72266 2.24609,-5.72266 h 4.51172 v 0.0781 l -4.31641,9.45312 z"
         id="path42052" />
      <path
         d="m 273.0625,503.89745 q 0,1.44531 -0.99609,3.20312 l -8.39844,14.66797 h 9.35547 v 4.00391 h -14.82422 v -2.83204 l 10.35156,-18.20312 v -5.64453 h -5.56641 v 5.68359 h -4.47265 v -6.79687 q 0,-2.77344 2.79297,-2.77344 h 8.96484 q 2.79297,0 2.79297,2.77344 z"
         id="path42049" />
      <path
         d="m 315.82031,520.01073 q 0,2.69531 -1.60156,4.23828 -1.60156,1.52344 -4.31641,1.52344 h -9.3164 v -30.56641 h 9.3164 q 2.71485,0 4.31641,1.5625 1.60156,1.54297 1.60156,4.23828 z m -4.58984,-0.76172 v -17.5586 q 0,-2.55859 -2.67578,-2.55859 h -3.39844 v 22.71484 h 3.28125 q 2.79297,0 2.79297,-2.59765 z"
         id="path42046" />
      <path
         d="m 331.67187,503.21385 h -4.47265 v -4.60937 h 4.47265 z m -0.0391,22.5586 h -4.39453 v -19.72657 h 4.39453 z"
         id="path42043" />
      <path
         d="m 356.03906,530.53807 q 0,2.44141 -2.51953,2.44141 h -7.77344 q -2.51953,0 -2.51953,-2.44141 v -3.16406 h 4.31641 v 2.36328 h 4.04297 v -4.08203 h -4.58985 q -1.875,0 -2.98828,-1.05469 -1.09375,-1.05469 -1.09375,-2.91016 V 509.6201 q 0,-1.69922 0.95703,-2.67578 0.95703,-0.97656 2.63672,-0.97656 0.83985,0 5.07813,0.80078 v -0.72266 h 4.45312 z m -4.45312,-8.47656 V 509.9326 q -2.2461,-0.23437 -2.79297,-0.23437 -1.44531,0 -1.44531,1.42578 v 9.45312 q 0,1.48438 1.48437,1.48438 z"
         id="path42040" />
      <path
         d="m 371.83203,503.21385 h -4.47266 v -4.60937 h 4.47266 z m -0.0391,22.5586 h -4.39453 v -19.72657 h 4.39453 z"
         id="path42037" />
      <path
         d="m 391.62891,525.77245 h -4.96094 q -2.48047,0 -2.48047,-2.44141 v -13.47656 h -2.10938 v -3.8086 h 2.10938 v -5.35156 h 4.45312 v 5.35156 h 2.8711 v 3.8086 h -2.8711 v 12.10937 h 2.98829 z"
         id="path42034" />
      <path
         d="m 414.82422,525.77245 h -4.27735 v -0.6836 q -1.52343,0.23438 -3.04687,0.46875 -1.99219,0.29297 -3.02734,0.29297 -2.44141,0 -2.44141,-2.40234 v -7.10938 q 0,-2.4414 2.51953,-2.4414 h 6.03516 v -4.53125 h -4.27735 v 2.8125 h -4.04297 v -3.69141 q 0,-2.44141 2.51954,-2.44141 h 7.55859 q 2.48047,0 2.48047,2.44141 z m -4.23828,-3.55469 v -5.29297 h -4.27735 v 5.44922 z"
         id="path42031" />
      <path
         d="m 430.53906,525.77245 h -4.39453 v -30.56641 h 4.39453 z"
         id="path42028" />
    </g>
  </g>
</svg>
